<?xml version="1.0" encoding="UTF-8" standalone="no"?>
<!DOCTYPE svg PUBLIC "-//W3C//DTD SVG 1.1//EN" "http://www.w3.org/Graphics/SVG/1.1/DTD/svg11.dtd">
<svg width="100%" height="100%" viewBox="0 0 309 96" version="1.1" xmlns="http://www.w3.org/2000/svg" xmlns:xlink="http://www.w3.org/1999/xlink" xml:space="preserve" xmlns:serif="http://www.serif.com/" style="fill-rule:evenodd;clip-rule:evenodd;stroke-linejoin:round;stroke-miterlimit:2;">
    <g transform="matrix(1,0,0,1,-95.7,-202)">
        <g>
            <path d="M213,238.7C213,227.5 221.6,219.7 233.2,219.7C244.8,219.7 245.9,222.3 249.5,227L241.8,233.9C239.7,231.2 237.1,229.6 233.9,229.6C228.8,229.6 225.4,233.1 225.4,238.7C225.4,244.3 228.8,247.8 233.9,247.8C239,247.8 239.7,246.2 241.8,243.5L249.5,250.4C245.9,255.1 240.3,257.7 233.2,257.7C221.5,257.7 213,249.9 213,238.7Z" style="fill:white;fill-rule:nonzero;"/>
            <rect x="258.2" y="220.5" width="12.2" height="36.3" style="fill:white;fill-rule:nonzero;"/>
            <path d="M289.5,230L278.8,230L278.8,220.5L312.3,220.5L312.3,230L301.7,230L301.7,256.8L289.5,256.8L289.5,230Z" style="fill:white;fill-rule:nonzero;"/>
            <path d="M336.2,247.7L332.9,247.7L332.9,256.8L320.7,256.8L320.7,220.5L338.2,220.5C348.3,220.5 354.7,225.8 354.7,234.2C354.7,242.6 352.2,243.4 347.9,245.6L355.5,256.8L342.4,256.8L336.2,247.7ZM337.4,230L332.9,230L332.9,238.5L337.4,238.5C340.8,238.5 342.4,236.9 342.4,234.2C342.4,231.5 340.8,229.9 337.4,229.9L337.4,230Z" style="fill:white;fill-rule:nonzero;"/>
            <path d="M389.3,250.5L375.5,250.5L373.1,256.8L360.6,256.8L376.5,220.5L388.5,220.5L404.4,256.8L391.7,256.8L389.3,250.5ZM385.9,241.7L382.4,232.6L378.9,241.7L386,241.7L385.9,241.7Z" style="fill:white;fill-rule:nonzero;"/>
        </g>
        <g>
            <path d="M213,279.2L213.6,277.9C214.3,278.5 215.5,278.9 216.6,278.9C217.7,278.9 218.6,278.4 218.6,277.7C218.6,275.7 213.2,277 213.2,273.6C213.2,270.2 214.4,270.9 216.9,270.9C219.4,270.9 219.1,271.2 219.9,271.7L219.4,273C218.6,272.5 217.7,272.3 216.9,272.3C215.5,272.3 214.9,272.8 214.9,273.5C214.9,275.4 220.3,274.2 220.3,277.5C220.3,280.8 219.1,280.2 216.6,280.2C214.1,280.2 213.8,279.8 213,279.1L213,279.2Z" style="fill:white;fill-rule:nonzero;"/>
            <path d="M232.2,274.3C232.2,276.3 230.7,277.5 228.3,277.5L226.2,277.5L226.2,280.1L224.5,280.1L224.5,271L228.3,271C230.7,271 232.2,272.2 232.2,274.3ZM230.5,274.3C230.5,273.2 229.7,272.5 228.2,272.5L226.2,272.5L226.2,276.1L228.2,276.1C229.7,276.1 230.5,275.4 230.5,274.3Z" style="fill:white;fill-rule:nonzero;"/>
            <path d="M242,278L237.4,278L236.5,280.1L234.8,280.1L238.9,271L240.6,271L244.7,280.1L242.9,280.1L242,278ZM241.4,276.7L239.7,272.7L238,276.7L241.4,276.7Z" style="fill:white;fill-rule:nonzero;"/>
            <path d="M247.7,275.6C247.7,272.9 249.8,270.9 252.6,270.9C255.4,270.9 255.4,271.4 256.2,272.4L255.1,273.4C254.4,272.7 253.6,272.3 252.7,272.3C250.8,272.3 249.4,273.6 249.4,275.5C249.4,277.4 250.8,278.7 252.7,278.7C254.6,278.7 254.5,278.3 255.1,277.6L256.2,278.6C255.4,279.6 254.1,280.1 252.6,280.1C249.8,280.1 247.7,278.1 247.7,275.4L247.7,275.6Z" style="fill:white;fill-rule:nonzero;"/>
            <path d="M267.3,278.7L267.3,280.1L260.4,280.1L260.4,271L267.1,271L267.1,272.4L262.1,272.4L262.1,274.8L266.5,274.8L266.5,276.2L262.1,276.2L262.1,278.7L267.3,278.7Z" style="fill:white;fill-rule:nonzero;"/>
            <path d="M277.3,275.6C277.3,272.9 279.4,270.9 282.2,270.9C285,270.9 285,271.4 285.8,272.4L284.7,273.4C284,272.7 283.2,272.3 282.3,272.3C280.4,272.3 279,273.6 279,275.5C279,277.4 280.4,278.7 282.3,278.7C284.2,278.7 284.1,278.3 284.7,277.6L285.8,278.6C285,279.6 283.7,280.1 282.2,280.1C279.4,280.1 277.3,278.1 277.3,275.4L277.3,275.6Z" style="fill:white;fill-rule:nonzero;"/>
            <path d="M289.2,275.6C289.2,272.9 291.3,270.9 294.1,270.9C296.9,270.9 299,272.9 299,275.6C299,278.3 296.9,280.3 294.1,280.3C291.3,280.3 289.2,278.3 289.2,275.6ZM297.4,275.6C297.4,273.7 296,272.4 294.2,272.4C292.4,272.4 291,273.7 291,275.6C291,277.5 292.4,278.8 294.2,278.8C296,278.8 297.4,277.5 297.4,275.6Z" style="fill:white;fill-rule:nonzero;"/>
            <path d="M309.5,280.2L307.6,277.5L305.1,277.5L305.1,280.2L303.4,280.2L303.4,271.1L307.2,271.1C309.6,271.1 311.1,272.3 311.1,274.4C311.1,276.5 310.4,276.8 309.2,277.3L311.3,280.3L309.5,280.3L309.5,280.2ZM307.2,272.5L305.2,272.5L305.2,276.1L307.2,276.1C308.7,276.1 309.5,275.4 309.5,274.3C309.5,273.2 308.7,272.5 307.2,272.5Z" style="fill:white;fill-rule:nonzero;"/>
            <path d="M323.3,274.3C323.3,276.3 321.8,277.5 319.4,277.5L317.3,277.5L317.3,280.1L315.6,280.1L315.6,271L319.4,271C321.8,271 323.3,272.2 323.3,274.3ZM321.6,274.3C321.6,273.2 320.8,272.5 319.3,272.5L317.3,272.5L317.3,276.1L319.3,276.1C320.8,276.1 321.6,275.4 321.6,274.3Z" style="fill:white;fill-rule:nonzero;"/>
            <path d="M327.1,275.6C327.1,272.9 329.2,270.9 332,270.9C334.8,270.9 336.9,272.9 336.9,275.6C336.9,278.3 334.8,280.3 332,280.3C329.2,280.3 327.1,278.3 327.1,275.6ZM335.2,275.6C335.2,273.7 333.8,272.4 332,272.4C330.2,272.4 328.8,273.7 328.8,275.6C328.8,277.5 330.2,278.8 332,278.8C333.8,278.8 335.2,277.5 335.2,275.6Z" style="fill:white;fill-rule:nonzero;"/>
            <path d="M347.3,280.2L345.4,277.5L342.9,277.5L342.9,280.2L341.2,280.2L341.2,271.1L345,271.1C347.4,271.1 348.9,272.3 348.9,274.4C348.9,276.5 348.2,276.8 347,277.3L349.1,280.3L347.3,280.3L347.3,280.2ZM345,272.5L343,272.5L343,276.1L345,276.1C346.5,276.1 347.3,275.4 347.3,274.3C347.3,273.2 346.5,272.5 345,272.5Z" style="fill:white;fill-rule:nonzero;"/>
            <path d="M359.4,278L354.8,278L353.9,280.1L352.2,280.1L356.3,271L358,271L362.1,280.1L360.3,280.1L359.4,278ZM358.8,276.7L357.1,272.7L355.4,276.7L358.8,276.7Z" style="fill:white;fill-rule:nonzero;"/>
            <path d="M367.4,272.5L364.3,272.5L364.3,271.1L372.1,271.1L372.1,272.5L369.1,272.5L369.1,280.2L367.4,280.2L367.4,272.5Z" style="fill:white;fill-rule:nonzero;"/>
            <rect x="375.9" y="271" width="1.7" height="9.1" style="fill:white;fill-rule:nonzero;"/>
            <path d="M382,275.6C382,272.9 384.1,270.9 386.9,270.9C389.7,270.9 391.8,272.9 391.8,275.6C391.8,278.3 389.7,280.3 386.9,280.3C384.1,280.3 382,278.3 382,275.6ZM390.1,275.6C390.1,273.7 388.7,272.4 386.9,272.4C385.1,272.4 383.7,273.7 383.7,275.6C383.7,277.5 385.1,278.8 386.9,278.8C388.7,278.8 390.1,277.5 390.1,275.6Z" style="fill:white;fill-rule:nonzero;"/>
            <path d="M404.4,271L404.4,280.1L403,280.1L398,273.9L398,280.1L396.3,280.1L396.3,271L397.7,271L402.7,277.2L402.7,271L404.4,271Z" style="fill:white;fill-rule:nonzero;"/>
        </g>
    </g>
    <g transform="matrix(1,0,0,1,-95.7,-202)">
        <circle cx="143.7" cy="250" r="48" style="fill:white;"/>
        <g>
            <rect x="132.9" y="276.1" width="17.4" height="8.7"/>
            <rect x="124.2" y="267.4" width="8.7" height="8.7"/>
            <rect x="150.3" y="267.4" width="8.7" height="8.7"/>
            <rect x="159" y="241.3" width="8.7" height="26.1"/>
            <rect x="115.5" y="241.3" width="8.7" height="26.1"/>
            <rect x="124.2" y="232.6" width="8.7" height="8.7"/>
            <rect x="132.9" y="223.9" width="17.4" height="8.7"/>
            <rect x="150.3" y="232.6" width="8.7" height="8.7"/>
            <rect x="141.6" y="215.3" width="8.7" height="8.7" style="fill:rgb(104,60,17);"/>
            <path d="M159,241.3L159,267.4L150.3,267.4L150.3,276.1L132.9,276.1L132.9,267.4L124.2,267.4L124.2,241.3L132.9,241.3L132.9,232.6L150.3,232.6L150.3,241.3L159,241.3Z" style="fill:rgb(255,219,62);fill-rule:nonzero;"/>
            <rect x="150.3" y="215.3" width="17.4" height="17.4" style="fill:rgb(154,186,55);"/>
            <rect x="132.9" y="232.6" width="8.7" height="8.7" style="fill:white;"/>
            <rect x="124.2" y="241.3" width="8.7" height="8.7" style="fill:white;"/>
            <path d="M159,250L159,267.4L150.3,267.4L150.3,276L132.9,276L132.9,267.4L141.6,267.4L141.6,258.7L150.3,258.7L150.3,250L159,250Z" style="fill:rgb(238,162,2);fill-rule:nonzero;"/>
        </g>
    </g>
</svg>
